PathFileType	4	(X/Y/Z)	C:\Users\italobelli\Desktop\GitHub\PTbot_officialCBL\Personal_Results\FLX21_noisy1.trc
DataRate	CameraRate	NumFrames	NumMarkers	Units	OrigDataRate	OrigDataStartFrame	OrigNumFrames
107.000000	107.000000	21	9	m	107.000000	94	750
Frame#	Time		gu		centelbow		EpL		centpxt8		centijc7		ij		ts		aa		ai
			X1	Y1	Z1	X2	Y2	Z2	X3	Y3	Z3	X4	Y4	Z4	X5	Y5	Z5	X6	Y6	Z6	X7	Y7	Z7	X8	Y8	Z8	X9	Y9	Z9

94	0.86916	-0.058223	0.0050645	0.15512	0.086822	-0.1831	0.21739	0.095183	-0.16184	0.23904	-0.046816	-0.15316	-0.008669	-0.046816	0.031938	-0.008669	0	0	0	-0.14622	0.018416	0.060418	-0.093376	0.036293	0.16457	-0.14758	-0.09185	0.08548
95	0.8785	-0.058101	0.0059922	0.15474	0.090182	-0.17982	0.21782	0.098302	-0.15825	0.23932	-0.046816	-0.15316	-0.008669	-0.046816	0.031938	-0.008669	0	0	0	-0.14644	0.018141	0.060474	-0.093288	0.036938	0.16437	-0.14718	-0.092023	0.086267
96	0.88785	-0.057987	0.0069152	0.15437	0.09344	-0.17651	0.21825	0.10132	-0.15465	0.23961	-0.046816	-0.15316	-0.008669	-0.046816	0.031938	-0.008669	0	0	0	-0.14666	0.017866	0.06053	-0.093203	0.037581	0.16418	-0.14679	-0.092185	0.087053
97	0.8972	-0.057879	0.0078327	0.15399	0.09659	-0.17318	0.21867	0.10423	-0.15103	0.23989	-0.046816	-0.15316	-0.008669	-0.046816	0.031938	-0.008669	0	0	0	-0.14688	0.017592	0.060584	-0.09312	0.038219	0.16398	-0.14641	-0.092337	0.087837
98	0.90654	-0.057778	0.008744	0.15361	0.099625	-0.16983	0.21908	0.10704	-0.1474	0.24016	-0.046816	-0.15316	-0.008669	-0.046816	0.031938	-0.008669	0	0	0	-0.14709	0.017319	0.060636	-0.09304	0.038854	0.16378	-0.14603	-0.092476	0.088618
99	0.91589	-0.057685	0.0096483	0.15324	0.10254	-0.16646	0.21949	0.10972	-0.14375	0.24043	-0.046816	-0.15316	-0.008669	-0.046816	0.031938	-0.008669	0	0	0	-0.1473	0.017047	0.060688	-0.092962	0.039485	0.16358	-0.14567	-0.092604	0.089396
100	0.92523	-0.0576	0.010545	0.15286	0.10533	-0.16307	0.2199	0.11227	-0.14009	0.24069	-0.046816	-0.15316	-0.008669	-0.046816	0.031938	-0.008669	0	0	0	-0.14752	0.016776	0.060738	-0.092888	0.04011	0.16337	-0.14531	-0.092719	0.090169
101	0.93458	-0.057523	0.011433	0.15248	0.10798	-0.15967	0.2203	0.1147	-0.13642	0.24095	-0.046816	-0.15316	-0.008669	-0.046816	0.031938	-0.008669	0	0	0	-0.14772	0.016507	0.060787	-0.092816	0.04073	0.16316	-0.14496	-0.092821	0.090938
102	0.94393	-0.057454	0.012312	0.1521	0.11049	-0.15626	0.22069	0.11699	-0.13274	0.24121	-0.046816	-0.15316	-0.008669	-0.046816	0.031938	-0.008669	0	0	0	-0.14793	0.016239	0.060834	-0.092748	0.041343	0.16294	-0.14463	-0.092909	0.091702
103	0.95327	-0.057394	0.01318	0.15172	0.11285	-0.15283	0.22107	0.11913	-0.12906	0.24145	-0.046816	-0.15316	-0.008669	-0.046816	0.031938	-0.008669	0	0	0	-0.14813	0.015973	0.06088	-0.092682	0.04195	0.16272	-0.1443	-0.092982	0.09246
104	0.96262	-0.057343	0.014038	0.15134	0.11506	-0.1494	0.22145	0.12112	-0.12537	0.24169	-0.046816	-0.15316	-0.008669	-0.046816	0.031938	-0.008669	0	0	0	-0.14833	0.015708	0.060924	-0.092621	0.04255	0.1625	-0.14399	-0.09304	0.093213
105	0.97196	-0.057301	0.014884	0.15097	0.11711	-0.14595	0.22182	0.12296	-0.12168	0.24193	-0.046816	-0.15316	-0.008669	-0.046816	0.031938	-0.008669	0	0	0	-0.14852	0.015446	0.060967	-0.092562	0.043143	0.16228	-0.14369	-0.093083	0.093958
106	0.98131	-0.057268	0.015718	0.15059	0.11899	-0.1425	0.22218	0.12463	-0.11799	0.24216	-0.046816	-0.15316	-0.008669	-0.046816	0.031938	-0.008669	0	0	0	-0.14871	0.015187	0.061007	-0.092508	0.043727	0.16205	-0.1434	-0.093109	0.094696
107	0.99065	-0.057246	0.016539	0.15021	0.12069	-0.13904	0.22254	0.12613	-0.1143	0.24238	-0.046816	-0.15316	-0.008669	-0.046816	0.031938	-0.008669	0	0	0	-0.1489	0.01493	0.061046	-0.092458	0.044303	0.16182	-0.14313	-0.093118	0.095426
108	1	-0.057233	0.017346	0.14984	0.12222	-0.13558	0.22288	0.12746	-0.11062	0.24259	-0.046816	-0.15316	-0.008669	-0.046816	0.031938	-0.008669	0	0	0	-0.14908	0.014675	0.061083	-0.092411	0.044869	0.16159	-0.14287	-0.09311	0.096148
109	1.0093	-0.057242	0.018158	0.14946	0.12363	-0.13206	0.22322	0.12867	-0.10688	0.24279	-0.046816	-0.15316	-0.008669	-0.046816	0.031938	-0.008669	0	0	0	-0.14926	0.014422	0.061119	-0.092372	0.045436	0.16135	-0.14262	-0.093086	0.096871
110	1.0187	-0.057285	0.018992	0.14908	0.12501	-0.12842	0.22356	0.12982	-0.10302	0.24298	-0.046816	-0.15316	-0.008669	-0.046816	0.031938	-0.008669	0	0	0	-0.14945	0.014169	0.061154	-0.092345	0.046012	0.16108	-0.14239	-0.093049	0.097604
111	1.028	-0.057361	0.019849	0.14869	0.12635	-0.12466	0.2239	0.13093	-0.099057	0.24315	-0.046816	-0.15316	-0.008669	-0.046816	0.031938	-0.008669	0	0	0	-0.14964	0.013917	0.061189	-0.092329	0.046597	0.1608	-0.14216	-0.092999	0.098347
112	1.0374	-0.057467	0.020725	0.14829	0.12765	-0.1208	0.22424	0.13197	-0.094985	0.2433	-0.046816	-0.15316	-0.008669	-0.046816	0.031938	-0.008669	0	0	0	-0.14983	0.013665	0.061223	-0.092325	0.04719	0.1605	-0.14195	-0.092936	0.0991
113	1.0467	-0.057604	0.021621	0.14789	0.12891	-0.11683	0.22458	0.13297	-0.090813	0.24343	-0.046816	-0.15316	-0.008669	-0.046816	0.031938	-0.008669	0	0	0	-0.15002	0.013413	0.061256	-0.092331	0.047791	0.16019	-0.14175	-0.092861	0.099861
114	1.0561	-0.05777	0.022533	0.14748	0.13013	-0.11276	0.22492	0.13391	-0.086545	0.24355	-0.046816	-0.15316	-0.008669	-0.046816	0.031938	-0.008669	0	0	0	-0.15022	0.013161	0.06129	-0.092347	0.048399	0.15986	-0.14155	-0.092775	0.10063
